<svg xmlns="http://www.w3.org/2000/svg" viewBox="0 0 200 60" role="img" aria-labelledby="title desc">
  <title id="title">Tea Guru logo</title>
  <desc id="desc">Circular tea mark with leaf and wordmark</desc>
  <rect width="200" height="60" rx="14" fill="#ffffff" stroke="#e6ddcd" />
  <g transform="translate(12 10)">
    <circle cx="20" cy="20" r="20" fill="#325842" />
    <path d="M18 32c7-2.5 12-9 12-15.5 0-1.6-.3-3.2-.9-4.6-4.3 0-8.8 2.6-11.1 6.2-2.1 3.3-2.3 7.8-.5 13.9z" fill="#d89a4c" />
    <path d="M22.5 13c-3.5 0-6.5 2.5-6.5 6.2 0 3.5 2.2 5.4 4.4 5.4 2.6 0 4.6-2 4.6-5.2 0-2.8-1.2-4.1-2.5-5.1z" fill="#f7f2ea" opacity="0.9" />
  </g>
  <g fill="#1f1c18" font-family="Georgia, 'Times New Roman', serif">
    <text x="70" y="27" font-size="20" font-weight="700">TEA</text>
    <text x="70" y="46" font-size="18" font-weight="700" letter-spacing="1">GURU</text>
  </g>
</svg>
